<svg xmlns="http://www.w3.org/2000/svg" width="1200" height="90" viewBox="0 0 1200 90">
  <defs>
    <!-- Neon color (hot pink) -->
    <style>
      :root { --neon: #ff2bd6; }
    </style>

    <!-- Strong multi-layer glow -->
    <filter id="neonGlow" x="-40%" y="-80%" width="180%" height="260%">
      <feGaussianBlur stdDeviation="10" result="blur1"/>
      <feColorMatrix in="blur1" type="matrix"
        values="1 0 0 0 0
                0 0 0 0 0
                1 0 0 0 0
                0 0 0 0.85 0" result="pink1"/>
      <feGaussianBlur stdDeviation="5" result="blur2"/>
      <feColorMatrix in="blur2" type="matrix"
        values="1 0 0 0 0
                0 0 0 0 0
                1 0 0 0 0
                0 0 0 0.95 0" result="pink2"/>
      <feMerge>
        <feMergeNode in="pink1"/>
        <feMergeNode in="pink2"/>
        <feMergeNode in="SourceGraphic"/>
      </feMerge>
    </filter>

    <!-- subtle tech dots -->
    <pattern id="dots" width="14" height="14" patternUnits="userSpaceOnUse">
      <circle cx="2" cy="2" r="1" fill="var(--neon)" opacity="0.08"/>
    </pattern>
  </defs>

  <rect width="1200" height="90" fill="url(#dots)"/>

  <!-- Main thick line -->
  <path d="M30,70 L30,28 L70,28 L92,12 L420,12 L450,26 L750,26 L780,12 L1108,12 L1130,28 L1170,28 L1170,70"
        fill="none" stroke="var(--neon)" stroke-width="8"
        stroke-linecap="round" stroke-linejoin="round"
        filter="url(#neonGlow)"/>

  <!-- Inner highlight (white-ish core) -->
  <path d="M30,70 L30,28 L70,28 L92,12 L420,12 L450,26 L750,26 L780,12 L1108,12 L1130,28 L1170,28 L1170,70"
        fill="none" stroke="#ffffff" stroke-width="2"
        stroke-linecap="round" stroke-linejoin="round"
        opacity="0.55"/>

  <!-- Accent segments -->
  <path d="M60,54 L60,34 L96,34 L116,22 L410,22"
        fill="none" stroke="var(--neon)" stroke-width="4"
        stroke-linecap="round" opacity="0.85" filter="url(#neonGlow)"/>
  <path d="M790,22 L1084,22 L1104,34 L1140,34 L1140,54"
        fill="none" stroke="var(--neon)" stroke-width="4"
        stroke-linecap="round" opacity="0.85" filter="url(#neonGlow)"/>

  <!-- Center notch -->
  <path d="M560,12 L600,36 L640,12"
        fill="none" stroke="var(--neon)" stroke-width="6"
        opacity="0.95" filter="url(#neonGlow)"/>
</svg>
